<svg width="46" height="46" viewBox="0 0 46 46" fill="none" xmlns="http://www.w3.org/2000/svg">
<path d="M40.3706 20.5848C40.708 20.4359 40.9943 20.1914 41.194 19.8814C41.3938 19.5715 41.4983 19.2097 41.4945 18.8409C41.4906 18.4722 41.3787 18.1127 41.1726 17.8069C40.9665 17.5011 40.6751 17.2625 40.3347 17.1207L24.1809 9.76277C23.6898 9.53877 23.1563 9.42285 22.6166 9.42285C22.0768 9.42285 21.5433 9.53877 21.0523 9.76277L4.90028 17.1131C4.56474 17.2601 4.2793 17.5017 4.07886 17.8083C3.87842 18.1149 3.77167 18.4732 3.77167 18.8395C3.77167 19.2059 3.87842 19.5642 4.07886 19.8708C4.2793 20.1774 4.56474 20.419 4.90028 20.5659L21.0523 27.9314C21.5433 28.1554 22.0768 28.2713 22.6166 28.2713C23.1563 28.2713 23.6898 28.1554 24.1809 27.9314L40.3706 20.5848Z" stroke="#00B4D8" stroke-width="3.76942" stroke-linecap="round" stroke-linejoin="round"/>
<path d="M41.4637 18.8472V30.1554" stroke="#00B4D8" stroke-width="3.76942" stroke-linecap="round" stroke-linejoin="round"/>
<path d="M11.3083 23.5588V30.1553C11.3083 31.6549 12.4997 33.0931 14.6204 34.1534C16.7411 35.2138 19.6174 35.8095 22.6165 35.8095C25.6157 35.8095 28.492 35.2138 30.6127 34.1534C32.7334 33.0931 33.9248 31.6549 33.9248 30.1553V23.5588" stroke="#00B4D8" stroke-width="3.76942" stroke-linecap="round" stroke-linejoin="round"/>
</svg>
