<svg width="25" height="24" viewBox="0 0 25 24" fill="none" xmlns="http://www.w3.org/2000/svg">
<path d="M24.0874 9.80801H12.5564V14.4093H19.1922C18.5746 17.3333 15.9892 19.0133 12.5564 19.0133C11.5958 19.0149 10.6444 18.8339 9.7566 18.4806C8.86885 18.1274 8.06227 17.6089 7.3831 16.9548C6.70394 16.3008 6.16557 15.524 5.79885 14.6692C5.43214 13.8144 5.24432 12.8982 5.24614 11.9733C5.2445 11.0486 5.43246 10.1326 5.79925 9.27789C6.16605 8.42321 6.70445 7.64664 7.38359 6.99273C8.06274 6.33881 8.86926 5.82041 9.75692 5.46724C10.6446 5.11407 11.5959 4.93309 12.5564 4.93467C14.2998 4.93467 15.8757 5.53067 17.1123 6.50534L20.7127 3.04001C18.5192 1.19867 15.7067 0.0626728 12.5564 0.0626728C10.9304 0.0580966 9.31948 0.363086 7.81635 0.960099C6.31322 1.55711 4.94749 2.43437 3.79774 3.54141C2.64799 4.64846 1.73688 5.96344 1.11684 7.41074C0.496791 8.85804 0.180035 10.4091 0.184787 11.9747C0.179851 13.5403 0.496481 15.0914 1.11646 16.5388C1.73644 17.9862 2.64754 19.3013 3.79733 20.4083C4.94712 21.5154 6.31292 22.3927 7.81613 22.9896C9.31935 23.5866 10.9303 23.8914 12.5564 23.8867C18.7422 23.8867 24.3671 19.5547 24.3671 11.9747C24.3671 11.2707 24.2549 10.512 24.0874 9.80801Z" fill="black"/>
</svg>
